<svg xmlns="http://www.w3.org/2000/svg" viewBox="0 0 800 800" width="800" height="800" role="img">
<defs>
  <filter id="grain" x="0" y="0" width="100%" height="100%">
    <feTurbulence type="fractalNoise" baseFrequency="0.85" numOctaves="3" stitchTiles="stitch"/>
    <feColorMatrix type="saturate" values="0"/>
    <feComponentTransfer><feFuncA type="linear" slope="0.045"/></feComponentTransfer>
  </filter>
</defs>
<rect width="800" height="800" fill="#ffffff"/>
<rect width="800" height="800" fill="#f7f7f5"/>
<rect x="250" y="180" width="300" height="300" rx="72" fill="#ffffff" stroke="#e4e4e1"/>
<circle cx="400" cy="330" r="86" fill="none" stroke="#111111" stroke-width="16"/>
<circle cx="400" cy="244" r="22" fill="#111111"/>
<text x="400" y="560" font-family="Geist, Inter, ui-sans-serif, system-ui, -apple-system, 'Segoe UI', Roboto, Arial, sans-serif" font-size="22" font-weight="500" fill="#111111" text-anchor="middle" letter-spacing="-0.6">Halcyon</text>
<line x1="120" y1="620" x2="680" y2="620" stroke="#e4e4e1"/>
<g transform="translate(180 700) scale(1)"><rect x="-44" y="-44" width="88" height="88" rx="21" fill="#ffffff" stroke="#e4e4e1"/><circle cx="0" cy="0" r="25" fill="none" stroke="#111111" stroke-width="5"/><circle cx="0" cy="-25" r="6.5" fill="#111111"/></g>
<g transform="translate(360 700) scale(0.62)"><rect x="-44" y="-44" width="88" height="88" rx="21" fill="#ffffff" stroke="#e4e4e1"/><circle cx="0" cy="0" r="25" fill="none" stroke="#111111" stroke-width="5"/><circle cx="0" cy="-25" r="6.5" fill="#111111"/></g>
<g transform="translate(540 700) scale(0.36)"><rect x="-44" y="-44" width="88" height="88" rx="21" fill="#ffffff" stroke="#e4e4e1"/><circle cx="0" cy="0" r="25" fill="none" stroke="#111111" stroke-width="5"/><circle cx="0" cy="-25" r="6.5" fill="#111111"/></g>
<text x="400" y="780" font-family="Geist, Inter, ui-sans-serif, system-ui, -apple-system, 'Segoe UI', Roboto, Arial, sans-serif" font-size="11" font-weight="400" fill="#8a8a87" text-anchor="middle" letter-spacing="2">1024 · 180 · 60</text>
<rect width="800" height="800" filter="url(#grain)" opacity="0.5" style="mix-blend-mode:multiply"/>
<rect x="0.5" y="0.5" width="799" height="799" fill="none" stroke="#e4e4e1"/>
</svg>