<svg xmlns="http://www.w3.org/2000/svg" viewBox="0 0 1280 900" width="1280" height="900" role="img">
<defs>
  <filter id="grain" x="0" y="0" width="100%" height="100%">
    <feTurbulence type="fractalNoise" baseFrequency="0.85" numOctaves="3" stitchTiles="stitch"/>
    <feColorMatrix type="saturate" values="0"/>
    <feComponentTransfer><feFuncA type="linear" slope="0.045"/></feComponentTransfer>
  </filter>
</defs>
<rect width="1280" height="900" fill="#ffffff"/>
<text x="124" y="148" font-family="Geist, Inter, ui-sans-serif, system-ui, -apple-system, 'Segoe UI', Roboto, Arial, sans-serif" font-size="60" font-weight="500" fill="#111111" text-anchor="start" letter-spacing="-2.6">Pricing</text>
<text x="124" y="192" font-family="Geist, Inter, ui-sans-serif, system-ui, -apple-system, 'Segoe UI', Roboto, Arial, sans-serif" font-size="18" font-weight="400" fill="#8a8a87" text-anchor="start" letter-spacing="0">One table. No sales call.</text>
<rect x="124" y="250" width="1032" height="520" rx="12" fill="#ffffff" stroke="#e4e4e1"/>
<line x1="124" y1="330" x2="1156" y2="330" stroke="#e4e4e1"/>

<text x="468" y="292" font-family="Geist, Inter, ui-sans-serif, system-ui, -apple-system, 'Segoe UI', Roboto, Arial, sans-serif" font-size="15" font-weight="500" fill="#111111" text-anchor="start" letter-spacing="0">Starter</text>
<text x="468" y="310" font-family="Geist, Inter, ui-sans-serif, system-ui, -apple-system, 'Segoe UI', Roboto, Arial, sans-serif" font-size="11" font-weight="400" fill="#8a8a87" text-anchor="start" letter-spacing="0">For one project</text>
<text x="468" y="384" font-family="Geist, Inter, ui-sans-serif, system-ui, -apple-system, 'Segoe UI', Roboto, Arial, sans-serif" font-size="40" font-weight="500" fill="#111111" text-anchor="start" letter-spacing="-1.8">$0</text>
<rect x="468" y="406" width="150" height="36" rx="18" fill="none" stroke="#e4e4e1"/>
<text x="543" y="429" font-family="Geist, Inter, ui-sans-serif, system-ui, -apple-system, 'Segoe UI', Roboto, Arial, sans-serif" font-size="12" font-weight="500" fill="#111111" text-anchor="middle" letter-spacing="0">Choose</text>

<text x="700" y="292" font-family="Geist, Inter, ui-sans-serif, system-ui, -apple-system, 'Segoe UI', Roboto, Arial, sans-serif" font-size="15" font-weight="500" fill="#111111" text-anchor="start" letter-spacing="0">Team</text>
<text x="700" y="310" font-family="Geist, Inter, ui-sans-serif, system-ui, -apple-system, 'Segoe UI', Roboto, Arial, sans-serif" font-size="11" font-weight="400" fill="#8a8a87" text-anchor="start" letter-spacing="0">Per seat, monthly</text>
<text x="700" y="384" font-family="Geist, Inter, ui-sans-serif, system-ui, -apple-system, 'Segoe UI', Roboto, Arial, sans-serif" font-size="40" font-weight="500" fill="#111111" text-anchor="start" letter-spacing="-1.8">$24</text>
<rect x="700" y="406" width="150" height="36" rx="18" fill="none" stroke="#e4e4e1"/>
<text x="775" y="429" font-family="Geist, Inter, ui-sans-serif, system-ui, -apple-system, 'Segoe UI', Roboto, Arial, sans-serif" font-size="12" font-weight="500" fill="#111111" text-anchor="middle" letter-spacing="0">Choose</text>
<rect x="916" y="250" width="232" height="520" fill="#f7f7f5"/><line x1="916" y1="250" x2="916" y2="770" stroke="#e4e4e1"/><line x1="1148" y1="250" x2="1148" y2="770" stroke="#e4e4e1"/>
<text x="932" y="292" font-family="Geist, Inter, ui-sans-serif, system-ui, -apple-system, 'Segoe UI', Roboto, Arial, sans-serif" font-size="15" font-weight="500" fill="#111111" text-anchor="start" letter-spacing="0">Scale</text>
<text x="932" y="310" font-family="Geist, Inter, ui-sans-serif, system-ui, -apple-system, 'Segoe UI', Roboto, Arial, sans-serif" font-size="11" font-weight="400" fill="#8a8a87" text-anchor="start" letter-spacing="0">Per seat, monthly</text>
<text x="932" y="384" font-family="Geist, Inter, ui-sans-serif, system-ui, -apple-system, 'Segoe UI', Roboto, Arial, sans-serif" font-size="40" font-weight="500" fill="#111111" text-anchor="start" letter-spacing="-1.8">$79</text>
<rect x="932" y="406" width="150" height="36" rx="18" fill="#111111" stroke="none"/>
<text x="1007" y="429" font-family="Geist, Inter, ui-sans-serif, system-ui, -apple-system, 'Segoe UI', Roboto, Arial, sans-serif" font-size="12" font-weight="500" fill="#ffffff" text-anchor="middle" letter-spacing="0">Start</text>
<line x1="124" y1="482" x2="1156" y2="482" stroke="#e4e4e1"/>
<rect x="156" y="506" width="190" height="9" rx="4" fill="#e4e4e1"/>
<line x1="470" y1="510" x2="482" y2="510" stroke="#e4e4e1" stroke-width="2"/><line x1="702" y1="510" x2="714" y2="510" stroke="#e4e4e1" stroke-width="2"/><circle cx="940" cy="510" r="5" fill="#111111"/>
<line x1="124" y1="540" x2="1156" y2="540" stroke="#e4e4e1"/>
<rect x="156" y="564" width="172" height="9" rx="4" fill="#e4e4e1"/>
<line x1="470" y1="568" x2="482" y2="568" stroke="#e4e4e1" stroke-width="2"/><line x1="702" y1="568" x2="714" y2="568" stroke="#e4e4e1" stroke-width="2"/><circle cx="940" cy="568" r="5" fill="#111111"/>
<line x1="124" y1="598" x2="1156" y2="598" stroke="#e4e4e1"/>
<rect x="156" y="622" width="154" height="9" rx="4" fill="#e4e4e1"/>
<line x1="470" y1="626" x2="482" y2="626" stroke="#e4e4e1" stroke-width="2"/><circle cx="708" cy="626" r="5" fill="#111111"/><circle cx="940" cy="626" r="5" fill="#111111"/>
<line x1="124" y1="656" x2="1156" y2="656" stroke="#e4e4e1"/>
<rect x="156" y="680" width="136" height="9" rx="4" fill="#e4e4e1"/>
<line x1="470" y1="684" x2="482" y2="684" stroke="#e4e4e1" stroke-width="2"/><circle cx="708" cy="684" r="5" fill="#111111"/><circle cx="940" cy="684" r="5" fill="#111111"/>
<line x1="124" y1="714" x2="1156" y2="714" stroke="#e4e4e1"/>
<rect x="156" y="738" width="118" height="9" rx="4" fill="#e4e4e1"/>
<circle cx="476" cy="742" r="5" fill="#111111"/><circle cx="708" cy="742" r="5" fill="#111111"/><circle cx="940" cy="742" r="5" fill="#111111"/>
<text x="124" y="834" font-family="Geist, Inter, ui-sans-serif, system-ui, -apple-system, 'Segoe UI', Roboto, Arial, sans-serif" font-size="13" font-weight="400" fill="#8a8a87" text-anchor="start" letter-spacing="0">Prices in USD. Cancel any time.</text>
<rect width="1280" height="900" filter="url(#grain)" opacity="0.5" style="mix-blend-mode:multiply"/>
<rect x="0.5" y="0.5" width="1279" height="899" fill="none" stroke="#e4e4e1"/>
</svg>